<svg width="46" height="35" viewBox="0 0 46 35" fill="none" xmlns="http://www.w3.org/2000/svg"><path d="M19.076 27.392a13.177 13.177 0 01-.58-1.687c-1.195 1.839-3.314 3.064-5.723 3.064-3.731 0-6.765-2.94-6.765-6.553 0-2.266 1.195-4.271 3.007-5.443a13.338 13.338 0 01-.74-4.565c.007-.547.046-1.085.116-1.615C3.5 12.33 0 16.883 0 22.216c0 6.822 5.729 12.37 12.773 12.37a12.94 12.94 0 008.73-3.35c-.327-.37-.636-.754-.922-1.152a13.606 13.606 0 01-1.505-2.692z" fill="#000"/><path d="M36.707 10.597a13.14 13.14 0 01.117 1.775c0 1.01-.11 1.993-.327 2.941-.111.501-.25.99-.415 1.464 1.806 1.179 2.995 3.175 2.995 5.438 0 3.614-3.034 6.553-6.765 6.553-2.41 0-4.527-1.225-5.722-3.064-.013-.02-.028-.04-.04-.061a6.43 6.43 0 01-.649-1.333 6.228 6.228 0 01-.318-1.425 6.235 6.235 0 01-.036-.67 11.845 11.845 0 00-.577-3.675c-.006-.014-.01-.031-.015-.046a11.96 11.96 0 00-.538-1.36 11.924 11.924 0 00-.949-1.678 12.5 12.5 0 00-1.965-2.26 12.868 12.868 0 00-5.365-2.916c.901-2.59 3.434-4.46 6.411-4.46 2.974 0 5.507 1.867 6.41 4.457-.486.128-.96.283-1.424.466a12.802 12.802 0 00-3.953 2.452c.327.37.637.754.922 1.153.472.654.884 1.35 1.229 2.077.1.204.19.407.277.614a13.887 13.887 0 01.58 1.687 6.729 6.729 0 013.268-2.615 6.96 6.96 0 014.873-.015c.15-.462.276-.936.366-1.42a11.689 11.689 0 00.204-2.988 10.94 10.94 0 00-.189-1.545C34.027 4.382 28.81 0 22.55 0 16.291 0 11.07 4.38 9.986 10.14a11.371 11.371 0 00-.19 1.545 11.876 11.876 0 00.57 4.408 6.638 6.638 0 011.458-.363 6.872 6.872 0 013.419.387 6.729 6.729 0 013.253 2.61c.18.273.34.561.472.86h.003a6.31 6.31 0 01.567 2.628c0 .23.007.457.022.684.027.524.09 1.041.186 1.545a11.475 11.475 0 00.408 1.56 12.05 12.05 0 001.464 2.97 12.608 12.608 0 001.964 2.261 12.947 12.947 0 008.73 3.352c7.045 0 12.774-5.549 12.774-12.372 0-5.327-3.494-9.878-8.379-11.618z" fill="#000"/></svg>