<svg width="145" height="36" viewBox="0 0 145 36" fill="none" xmlns="http://www.w3.org/2000/svg"><path d="M47.477 11.24h3.993v14.73h7.398v3.762h-11.39m13.155-12.693h3.84v12.693h-3.84V17.039zm1.92-6.269c1.229 0 2.227 1.02 2.227 2.273 0 1.254-.998 2.272-2.227 2.272-1.229 0-2.227-1.018-2.227-2.272 0-1.254.998-2.272 2.227-2.272zm3.378 6.269h4.147l3.149 8.618h.051l2.918-8.618h3.865l-4.914 12.693h-4.07m26.16-7.13c0 4.361-2.61 7.6-7.628 7.6-5.043 0-7.653-3.239-7.653-7.6V11.24h3.993v11.205c0 2.272 1.535 3.996 3.66 3.996 2.1 0 3.635-1.724 3.635-3.996V11.24h3.993m3.199 5.799h3.686v1.723h.051c.512-.992 1.766-2.037 3.635-2.037 3.891 0 4.608 2.612 4.608 6.007v7h-3.84v-6.216c0-1.463-.025-3.343-1.997-3.343-1.997 0-2.303 1.593-2.303 3.238v6.32h-3.84m14.744-12.692h3.839v12.693h-3.839V17.039zm1.92-6.269c1.228 0 2.227 1.02 2.227 2.273 0 1.254-.999 2.272-2.227 2.272-1.229 0-2.228-1.018-2.228-2.272 0-1.254.999-2.272 2.228-2.272zm13.156 9.403h-3.379v4.23c0 1.358.153 2.351 1.818 2.351.409 0 1.229-.052 1.561-.366v3.266c-.845.313-1.792.391-2.688.391-2.559 0-4.531-1.071-4.531-3.84v-6.032h-2.457v-3.134h2.457v-3.761h3.84v3.76h3.379m9.113 14.757c-1.024 2.69-1.613 4.205-5.273 4.205a8.914 8.914 0 01-2.867-.47l.511-3.213a4.26 4.26 0 001.793.392c1.74 0 2.022-.757 2.559-2.142l.281-.73-5.452-12.798h4.147l3.2 8.383h.051l2.739-8.383H145M17.284 26.144a13.028 13.028 0 01-.526-1.61c-1.083 1.755-3.002 2.924-5.185 2.924-3.38 0-6.13-2.805-6.13-6.254a6.279 6.279 0 012.725-5.196 13.382 13.382 0 01-.672-4.2c0-.052 0-.105.002-.158.006-.522.041-1.035.104-1.541C3.172 11.767 0 16.113 0 21.204c0 6.512 5.19 11.808 11.573 11.808 3.057 0 5.841-1.217 7.91-3.199a13.203 13.203 0 01-2.2-3.67z" fill="#fff"/><path d="M33.258 10.114c.063.506.1 1.02.104 1.542.002.05.002.102.002.153 0 .963-.1 1.902-.296 2.807-.101.478-.226.944-.376 1.397a6.285 6.285 0 012.714 5.19c0 3.45-2.75 6.255-6.13 6.255-2.183 0-4.102-1.17-5.185-2.925-.011-.019-.025-.038-.036-.058a6.277 6.277 0 01-.909-3.271 11.894 11.894 0 00-.522-3.508c-.006-.014-.008-.03-.014-.044-.139-.445-.3-.878-.487-1.297a11.562 11.562 0 00-1.699-2.75 10.871 10.871 0 00-.941-1.01 11.583 11.583 0 00-3.571-2.339c-.42-.172-.85-.322-1.29-.444.816-2.472 3.11-4.258 5.808-4.258 2.695 0 4.99 1.783 5.808 4.255a11.522 11.522 0 00-4.872 2.786 13.32 13.32 0 012.199 3.668 13.717 13.717 0 01.525 1.61 6.167 6.167 0 012.962-2.496 5.935 5.935 0 013.095-.364c.457.067.901.183 1.32.35.136-.441.25-.894.332-1.355a11.74 11.74 0 00.185-2.852c-.024-.5-.081-.991-.171-1.475C30.83 4.182 26.103 0 20.43 0c-5.67 0-10.4 4.18-11.382 9.678-.088.484-.148.975-.172 1.475a11.922 11.922 0 00.517 4.207 5.762 5.762 0 011.32-.347 5.946 5.946 0 013.098.37 6.168 6.168 0 012.947 2.49c.164.262.308.537.427.823h.003c.332.766.514 1.616.514 2.508 0 .219.006.436.02.652.024.5.081.994.169 1.475a11.428 11.428 0 00.37 1.489 11.763 11.763 0 003.105 4.992c2.072 1.983 4.853 3.2 7.91 3.2 6.383 0 11.573-5.296 11.573-11.808 0-5.085-3.165-9.429-7.59-11.09z" fill="#fff"/></svg>