<svg width="46" height="35" viewBox="0 0 46 35" fill="none" xmlns="http://www.w3.org/2000/svg">
<path d="M19.0759 27.3918C18.845 26.8449 18.6528 26.2839 18.496 25.7046C17.3009 27.5437 15.1822 28.7685 12.773 28.7685C9.04204 28.7685 6.00835 25.8297 6.00835 22.2163C6.00835 19.9497 7.20346 17.9448 9.01515 16.7727C8.84985 16.2981 8.70883 15.8096 8.59732 15.309C8.38414 14.3637 8.27329 13.3803 8.27329 12.3734C8.27329 12.3182 8.27329 12.2629 8.27591 12.2076C8.28247 11.6607 8.32117 11.1226 8.3907 10.5928C3.50006 12.3296 0 16.8832 0 22.2163C0 29.0385 5.72892 34.5869 12.773 34.5869C16.1471 34.5869 19.2202 33.3126 21.5035 31.2359C21.1762 30.8661 20.8666 30.4818 20.5812 30.0835C19.9804 29.2481 19.4753 28.346 19.0759 27.3918Z" fill="black"/>
<path d="M36.7074 10.597C36.7762 11.1268 36.8182 11.6649 36.8215 12.2119C36.8241 12.264 36.8241 12.3193 36.8241 12.372C36.8241 13.3815 36.7133 14.365 36.4968 15.3135C36.386 15.8141 36.2476 16.3027 36.0823 16.7773C37.888 17.9558 39.0773 19.9519 39.0773 22.2155C39.0773 25.8292 36.0429 28.7681 32.312 28.7681C29.9027 28.7681 27.7854 27.5432 26.5896 25.704C26.5771 25.6837 26.562 25.6633 26.5502 25.643C26.2859 25.2294 26.0668 24.7815 25.9015 24.3101C25.7421 23.8565 25.6339 23.3794 25.5827 22.8845C25.5591 22.666 25.5467 22.4423 25.5467 22.2155C25.5467 21.4296 25.4719 20.659 25.3243 19.9138C25.2344 19.4456 25.1144 18.9888 24.9701 18.5403C24.9642 18.5256 24.9609 18.5085 24.955 18.4939C24.8015 18.0282 24.6244 17.5746 24.4171 17.1349C24.1469 16.5505 23.8288 15.9888 23.468 15.4558C23.1827 15.0372 22.8764 14.6356 22.5425 14.2545C22.2185 13.879 21.8728 13.527 21.5035 13.1954C20.3648 12.1598 19.0313 11.3244 17.562 10.7456C17.0995 10.5652 16.6246 10.4076 16.1379 10.28C17.0392 7.69043 19.5718 5.81944 22.549 5.81944C25.523 5.81944 28.0556 7.68725 28.9595 10.2768C28.4728 10.4051 27.9985 10.5595 27.5354 10.7425C26.0609 11.3187 24.7241 12.1567 23.5821 13.1954C23.9094 13.5651 24.219 13.9489 24.5044 14.3478C24.976 15.0022 25.3879 15.6979 25.7329 16.4253C25.8326 16.6286 25.9225 16.8325 26.0097 17.039C26.118 17.295 26.217 17.5543 26.3069 17.816C26.4118 18.1159 26.505 18.4183 26.5896 18.7264C27.3551 17.5485 28.4997 16.6229 29.8575 16.1108C30.6177 15.8199 31.4468 15.6629 32.312 15.6629C32.6399 15.6629 32.9581 15.6858 33.2736 15.7296C33.778 15.7995 34.268 15.9215 34.7304 16.0962C34.8806 15.6337 35.0072 15.1598 35.097 14.6763C35.2473 13.9285 35.322 13.1573 35.322 12.372C35.322 12.142 35.3161 11.9152 35.301 11.6878C35.2742 11.1643 35.2112 10.6497 35.1121 10.1434C34.0272 4.38173 28.8093 0 22.549 0C16.2914 0 11.0702 4.37919 9.98595 10.1402C9.88952 10.6465 9.82327 11.1618 9.79638 11.6853C9.78129 11.9121 9.77539 12.142 9.77539 12.372C9.77539 13.1573 9.85017 13.9254 9.99775 14.6738C10.0909 15.1566 10.2142 15.6305 10.367 16.093C10.8295 15.919 11.3195 15.797 11.8239 15.7296C12.1335 15.6858 12.4523 15.6629 12.773 15.6629C13.6447 15.6629 14.4797 15.823 15.2426 16.1165C16.5945 16.6286 17.7332 17.5543 18.496 18.7264C18.6764 19.0002 18.8358 19.288 18.9676 19.5879H18.9709C19.3376 20.3909 19.5383 21.2816 19.5383 22.2155C19.5383 22.4449 19.5449 22.6723 19.56 22.8991C19.5868 23.4226 19.6498 23.9404 19.7462 24.4442C19.8387 24.9385 19.962 25.4188 20.1155 25.8902C20.1273 25.9283 20.1391 25.9658 20.1542 26.0039C20.5058 27.0655 20.9991 28.061 21.6176 28.9746C21.9029 29.3933 22.2093 29.7948 22.5425 30.176C22.8672 30.5514 23.2155 30.9034 23.5821 31.235C25.8687 33.3125 28.9385 34.5869 32.312 34.5869C39.3567 34.5869 45.0856 29.0381 45.0856 22.2155C45.0856 16.8878 41.5921 12.3371 36.7074 10.597Z" fill="black"/>
</svg>
