<svg width="145" height="36" viewBox="0 0 145 36" fill="none" xmlns="http://www.w3.org/2000/svg">
<path d="M47.4771 11.2404H51.4702V25.9705H58.8681V29.7319H47.4771" fill="white"/>
<path d="M60.633 17.0386H64.4728V29.7319H60.633V17.0386ZM62.5532 10.7705C63.7816 10.7705 64.7801 11.7892 64.7801 13.0426C64.7801 14.2966 63.7816 15.3153 62.5532 15.3153C61.3242 15.3153 60.3264 14.2966 60.3264 13.0426C60.3264 11.7892 61.3242 10.7705 62.5532 10.7705Z" fill="white"/>
<path d="M65.9314 17.0386H70.0784L73.227 25.657H73.2781L76.1962 17.0386H80.0615L75.1466 29.7319H71.0768" fill="white"/>
<path d="M97.2369 22.6015C97.2369 26.9632 94.6261 30.2024 89.609 30.2024C84.5663 30.2024 81.9556 26.9632 81.9556 22.6015V11.2404H85.9487V22.4445C85.9487 24.7172 87.4844 26.4411 89.609 26.4411C91.7081 26.4411 93.2443 24.7172 93.2443 22.4445V11.2404H97.2369" fill="white"/>
<path d="M100.436 17.0386H104.122V18.7625H104.173C104.685 17.7699 105.939 16.7251 107.808 16.7251C111.699 16.7251 112.416 19.3373 112.416 22.7318V29.7319H108.576V23.5159C108.576 22.0533 108.551 20.1729 106.579 20.1729C104.582 20.1729 104.276 21.7659 104.276 23.411V29.7319H100.436" fill="white"/>
<path d="M115.18 17.0386H119.019V29.7319H115.18V17.0386ZM117.1 10.7705C118.328 10.7705 119.327 11.7892 119.327 13.0426C119.327 14.2966 118.328 15.3153 117.1 15.3153C115.871 15.3153 114.872 14.2966 114.872 13.0426C114.872 11.7892 115.871 10.7705 117.1 10.7705Z" fill="white"/>
<path d="M130.256 20.173H126.877V24.4037C126.877 25.7613 127.03 26.754 128.695 26.754C129.104 26.754 129.924 26.7024 130.256 26.3883V29.6537C129.411 29.9666 128.464 30.0454 127.568 30.0454C125.009 30.0454 123.037 28.9739 123.037 26.2058V20.173H120.58V17.0386H123.037V13.2778H126.877V17.0386H130.256" fill="white"/>
<path d="M139.369 31.7948C138.345 34.4853 137.756 36 134.096 36C133.123 36 132.15 35.843 131.229 35.5295L131.74 32.3169C132.329 32.5788 132.893 32.7092 133.533 32.7092C135.273 32.7092 135.555 31.9518 136.092 30.5675L136.373 29.8362L130.921 17.0386H135.068L138.268 25.4224H138.319L141.058 17.0386H145" fill="white"/>
<path d="M17.2835 26.1439C17.0743 25.6219 16.9002 25.0864 16.7582 24.5334C15.6753 26.2889 13.7557 27.458 11.5729 27.458C8.19246 27.458 5.44381 24.6529 5.44381 21.2038C5.44381 19.0402 6.52663 17.1265 8.1681 16.0077C8.01833 15.5548 7.89056 15.0885 7.78953 14.6106C7.59638 13.7084 7.49594 12.7697 7.49594 11.8086C7.49594 11.7558 7.49594 11.7031 7.49832 11.6503C7.50426 11.1282 7.53933 10.6146 7.60232 10.1089C3.1712 11.7667 0 16.1132 0 21.2038C0 27.7157 5.19064 33.0118 11.5729 33.0118C14.63 33.0118 17.4143 31.7954 19.483 29.8131C19.1865 29.4602 18.906 29.0934 18.6474 28.7132C18.1031 27.9158 17.6454 27.0547 17.2835 26.1439Z" fill="white"/>
<path d="M33.2583 10.1144C33.3207 10.6201 33.3587 11.1337 33.3617 11.6558C33.364 11.7055 33.364 11.7583 33.364 11.8086C33.364 12.7721 33.2636 13.7108 33.0675 14.6161C32.967 15.0939 32.8416 15.5603 32.6919 16.0132C34.328 17.138 35.4055 19.0433 35.4055 21.2038C35.4055 24.6529 32.6562 27.458 29.2758 27.458C27.093 27.458 25.1745 26.2889 24.0911 24.5334C24.0798 24.514 24.0662 24.4946 24.0555 24.4752C23.816 24.0805 23.6175 23.653 23.4677 23.203C23.3233 22.7701 23.2252 22.3147 23.1789 21.8423C23.1575 21.6337 23.1462 21.4203 23.1462 21.2038C23.1462 20.4537 23.0784 19.7182 22.9447 19.0069C22.8633 18.56 22.7545 18.124 22.6238 17.6959C22.6184 17.682 22.6155 17.6656 22.6101 17.6516C22.4711 17.2072 22.3106 16.7742 22.1228 16.3546C21.8779 15.7967 21.5897 15.2607 21.2628 14.752C21.0043 14.3523 20.7268 13.9691 20.4243 13.6053C20.1307 13.2469 19.8175 12.911 19.4829 12.5945C18.4512 11.6061 17.243 10.8087 15.9117 10.2563C15.4928 10.0841 15.0625 9.93367 14.6215 9.81179C15.4381 7.3402 17.7327 5.55442 20.4302 5.55442C23.1248 5.55442 25.4194 7.33717 26.2383 9.80876C25.7974 9.93125 25.3677 10.0786 24.9481 10.2532C23.6121 10.8032 22.4009 11.603 21.3662 12.5945C21.6628 12.9474 21.9433 13.3136 22.2018 13.6944C22.6291 14.319 23.0024 14.983 23.315 15.6773C23.4053 15.8713 23.4867 16.066 23.5658 16.263C23.6638 16.5074 23.7536 16.7548 23.835 17.0046C23.9301 17.2909 24.0145 17.5795 24.0911 17.8736C24.7847 16.7494 25.8217 15.8659 27.0519 15.3771C27.7407 15.0994 28.4919 14.9496 29.2758 14.9496C29.573 14.9496 29.8612 14.9715 30.1471 15.0133C30.6041 15.08 31.048 15.1964 31.467 15.3632C31.6031 14.9217 31.7178 14.4694 31.7992 14.0079C31.9353 13.2942 32.0031 12.5581 32.0031 11.8086C32.0031 11.5891 31.9977 11.3726 31.9841 11.1555C31.9597 10.6559 31.9026 10.1647 31.8129 9.68142C30.8299 4.18219 26.1022 0 20.4302 0C14.7606 0 10.0299 4.17976 9.04754 9.67839C8.96017 10.1617 8.90015 10.6534 8.87578 11.1531C8.86211 11.3696 8.85677 11.5891 8.85677 11.8086C8.85677 12.5581 8.92452 13.2912 9.05823 14.0055C9.14263 14.4663 9.25435 14.9187 9.39283 15.3601C9.81181 15.194 10.2558 15.0776 10.7128 15.0133C10.9933 14.9715 11.2821 14.9496 11.5727 14.9496C12.3626 14.9496 13.1191 15.1024 13.8103 15.3826C15.0351 15.8713 16.0668 16.7548 16.758 17.8736C16.9215 18.1349 17.0659 18.4096 17.1853 18.6958H17.1883C17.5205 19.4623 17.7024 20.3124 17.7024 21.2038C17.7024 21.4227 17.7083 21.6398 17.722 21.8563C17.7463 22.3559 17.8034 22.8501 17.8908 23.331C17.9746 23.8027 18.0863 24.2612 18.2254 24.7111C18.2361 24.7475 18.2468 24.7833 18.2604 24.8196C18.579 25.8329 19.0259 26.7831 19.5863 27.6551C19.8448 28.0547 20.1224 28.4379 20.4243 28.8017C20.7185 29.1601 21.034 29.496 21.3662 29.8125C23.438 31.7954 26.2193 33.0118 29.2758 33.0118C35.6586 33.0118 40.8493 27.7157 40.8493 21.2038C40.8493 16.1187 37.684 11.7752 33.2583 10.1144Z" fill="white"/>
</svg>
